# xmcd CD database file
#
# Track frame offsets:
#	150
#	17750
#	36307
#	54837
#	71622
#	90447
#	111952
#	127587
#	146787
#	167812
#	183802
#	202700
#	220927
#	237980
#	254392
#	269705
#
# Disc length: 3781 seconds
#
# Revision: 0
# Processed by: cddbd v1.4PL0 Copyright (c) Steve Scherf et al.
# Submitted via: CDex 1.50
#
DISCID=de0ec310
DTITLE=Various Artist - Forever Country Disc 1
DYEAR=1900
DGENRE=Country
TTITLE0=John Berry - Your Love Amazes Me
TTITLE1=Little Texas - My Love
TTITLE2=Vince Gill - Pocket Full Of Gold
TTITLE3=Restless Heart - When She Cries
TTITLE4=Tanya Tucker - Two Sparrows In A Hurricane
TTITLE5=Raybon Brothers - Butterfly Kisses
TTITLE6=Kevin Sharp - Nobody Knows
TTITLE7=Alabama - Once Upon A Lifetime
TTITLE8=Lorrie Morgan - Something In Red
TTITLE9=Clint Black - The Shoes You're Wearing
TTITLE10=Mark Chestnutt - Almost Goodbye
TTITLE11=Trace Adkins - (This Ain't No) Thinkin' Thing
TTITLE12=Kathy Mattea - Where Have You Been
TTITLE13=Mark Wills - Don't Laugh At Me
TTITLE14=Rhett Akins - Don't Get Me Started
TTITLE15=Randy Travis - Forever Together
EXTD=
EXTT0=
EXTT1=
EXTT2=
EXTT3=
EXTT4=
EXTT5=
EXTT6=
EXTT7=
EXTT8=
EXTT9=
EXTT10=
EXTT11=
EXTT12=
EXTT13=
EXTT14=
EXTT15=
PLAYORDER=
